# xmcd
#
# Track frame offsets: 
#        180
#        15764
#        33521
#        47828
#        62545
#        73759
#        85121
#        102813
#        111932
#        122067
#        136978
#        156564
#
# Disc length: 2239 seconds
#
# Revision: 0
# Processed by: cddbd v1.5.2PL0 Copyright (c) Steve Scherf et al.
# Submitted via: ExactAudioCopy v0.99pb5
#
DISCID=9b08bd0c
DTITLE=Various Artist - Maailmankylässä - Leo Siirtolan sävellyksiä
DYEAR=1994
DGENRE=Pop-Folk
TTITLE0=Onnen hetkiä - Lasse Hoikka
TTITLE1=Minä kevättä pelkään - Lasse Hoikka
TTITLE2=Miksi - Kaisa Savolainen
TTITLE3=Heipä hei, kesä - Kaisa Savolainen
TTITLE4=Juppi ja Illusia - Kalevi Korhonen
TTITLE5=Tule liekkien luo - Kaisa Savolainen
TTITLE6=Maailmankylässä - Lasse Hoikka
TTITLE7=Vanha kullankaivaja - Kalevi Korhonen
TTITLE8=Jätkän remppa - Kalevi Korhonen
TTITLE9=Kristalliyö - Lasse Hoikka
TTITLE10=Ei koskaan vannoa saa - Lasse Hoikka
TTITLE11=Tuomitun kehtolaulu - Kaisa Savolainen
EXTD=
EXTT0=
EXTT1=
EXTT2=
EXTT3=
EXTT4=
EXTT5=
EXTT6=
EXTT7=
EXTT8=
EXTT9=
EXTT10=
EXTT11=
PLAYORDER=
